<svg xmlns:xlink="http://www.w3.org/1999/xlink" xmlns="http://www.w3.org/2000/svg" class="MuiSvgIcon-root MuiSvgIcon-fontSizeLarge mui-1khfbo5" focusable="false" aria-hidden="true" viewBox="0 0 24 24" width="24" height="24" style="fill: none; --darkreader-inline-fill: none;" data-darkreader-inline-fill=""><path d="m 12.8497 1 v 3.9324 l 3.4868 2.0108 c 0.0279 0.0167 0.0501 0.0446 0.0668 0.0724 c 0.0223 0.0278 0.0279 0.0613 0.0279 0.0947 c 0 0.0334 -0.0056 0.0668 -0.0279 0.1003 c -0.0167 0.0278 -0.039 0.0501 -0.0668 0.0724 l -4.1441 2.384 c -0.0557 0.039 -0.1281 0.0557 -0.195 0.0557 c -0.0668 0 -0.1337 -0.0167 -0.195 -0.0557 l -4.1441 -2.384 c -0.0279 -0.0167 -0.0501 -0.0446 -0.0668 -0.0724 c -0.0167 -0.0279 -0.0279 -0.0613 -0.0279 -0.0947 c 0 -0.0334 0.0111 -0.0668 0.0279 -0.1003 c 0.0167 -0.0279 0.039 -0.0501 0.0668 -0.0724 l 3.4868 -2.0052 v -3.938 l -8.8953 5.13 v 10.2544 l 3.4144 -1.9662 v -4.0215 c 0 -0.0334 0.0056 -0.0668 0.0223 -0.0947 c 0.0167 -0.0279 0.0446 -0.0501 0.0724 -0.0724 c 0.0278 -0.0167 0.0613 -0.0223 0.1003 -0.0223 c 0.0334 0 0.0668 0.0056 0.0947 0.0223 l 4.1441 2.3895 c 0.0613 0.0334 0.1114 0.0836 0.1448 0.1448 c 0.0334 0.0557 0.0501 0.1225 0.0501 0.1949 v 4.7735 c 0 0.0334 -0.0056 0.0668 -0.0278 0.1003 c -0.0167 0.0279 -0.039 0.0557 -0.0668 0.0724 c -0.0334 0.0167 -0.0668 0.0223 -0.1003 0.0223 c -0.0334 0 -0.0668 -0.0056 -0.0947 -0.0223 l -3.4868 -2.0108 l -3.4144 1.9662 l 8.8953 5.13 l 8.8953 -5.13 l -3.4144 -1.9662 l -3.4868 2.0108 c -0.0278 0.0167 -0.0613 0.0223 -0.0947 0.0223 c -0.0334 0 -0.0668 -0.0111 -0.0947 -0.0279 c -0.0334 -0.0167 -0.0557 -0.039 -0.0724 -0.0668 c -0.0167 -0.0334 -0.0279 -0.0668 -0.0279 -0.1003 v -4.7735 c 0 -0.0724 0.0167 -0.1393 0.0501 -0.1949 c 0.039 -0.0613 0.0836 -0.1114 0.1448 -0.1448 l 4.1441 -2.3895 c 0.0278 -0.0167 0.0613 -0.0223 0.0947 -0.0223 c 0.0334 0 0.0668 0.0056 0.1003 0.0223 c 0.0278 0.0223 0.0501 0.0446 0.0668 0.0724 c 0.0223 0.0279 0.0279 0.0613 0.0279 0.1003 v 4.016 l 3.4144 1.9662 v -10.2544 l -8.8953 -5.13 z" fill="#202124" data-darkreader-inline-fill="" style="--darkreader-inline-fill: var(--darkreader-background-ffffff, #181a1b);"></path></svg>